<?xml version="1.0" encoding="UTF-8"?>
<!-- Created with Inkscape (http://www.inkscape.org/) -->
<svg width="10.873" height="8.3043" version="1.1" viewBox="0 0 2.8768 2.1972" xmlns="http://www.w3.org/2000/svg" xmlns:cc="http://creativecommons.org/ns#" xmlns:dc="http://purl.org/dc/elements/1.1/" xmlns:rdf="http://www.w3.org/1999/02/22-rdf-syntax-ns#">
 <metadata>
  <rdf:RDF>
   <cc:Work rdf:about="">
    <dc:format>image/svg+xml</dc:format>
    <dc:type rdf:resource="http://purl.org/dc/dcmitype/StillImage"/>
    <dc:title/>
   </cc:Work>
  </rdf:RDF>
 </metadata>
 <g transform="translate(-91.545 -42.559)">
  <g transform="matrix(.011561 0 0 .011931 90.788 42.052)" fill="#fff" stroke="#000" stroke-width="2.1167">
   <path d="m155.22 48.105-18.143 23.529s16.347-0.94494 29.482 5.4807c0 0 10.205 6.7091 10.961 18.899 0 0 0.18899 11.434-5.9531 23.151 0 0-5.9531 7.1815-15.969 11.717 0 0-6.2366 2.1734-12.946 4.0632 0 0 17.009 2.2679 26.931 6.4256 0 0 11.15 5.3862 15.97 14.741 0 0 3.6853 9.6384 3.3073 19.655 0 0 0.85044 11.245-13.229 19.277 0 0-6.8036 5.4807-21.545 5.4807l-22.457 0.52783s-1.281 6.292-5.0932 12.111c0 0-4.3965 8.8255-13.571 13.063h35.829s13.702 0 24.19-2.0789c0 0 12.095-2.4568 22.301-8.3155 0 0 11.623-5.6696 18.332-17.576 0 0 6.4256-8.9769 6.7091-20.505 0 0 1.3229-12.001-1.7954-20.411 0 0-2.9293-7.9375-10.111-14.836 0 0-3.6691-4.0632-11.701-8.5045-4.8108-2.3386-6.3855-2.5752-8.2372-3.0238 1.5034-1.3391 5.2917-4.5357 7.7485-7.7485 0 0 6.0476-7.7485 9.4494-15.308 0 0 3.4963-7.9375 2.6458-18.521 0 0 0.0945-7.3705-4.5357-16.631 0 0-4.1577-8.7879-15.214-15.969 0 0-9.6384-5.6696-18.237-7.0871-7.087-1.0394-15.119-1.6064-15.119-1.6064z"/>
   <path d="m219.73 48.334c-9.2146-0.01826-29.435-0.40405-42.315-0.54509 0 0 23.659 6.8846 30.506 24.653 0 0 9.5657 0.6064 22.984 1.1734 0 0 10.016-0.18913 17.198 5.1025 0 0 8.3151 6.3309 9.449 14.93 0 0 1.4174 8.9773-1.3229 17.009 0 0-2.1733 4.8189-8.5044 10.205 0 0-6.0476 4.8193-15.875 8.6935 0 0-6.4254 2.4568-12.284 3.9688 0 0-4.8196 1.0394-10.395 1.3229 0 0 9.6388 9.4492 14.458 15.686l7.1339 9.1664 48.561 66.741 34.925-0.12247-59.732-83.41s11.27-5.6237 18.887-13.107c0 0 5.3412-4.4133 9.1498-10.828 0 0 3.188-5.7778 4.7248-13.863 0 0 2.6151-8.6205 0.94464-18.71 0 0-0.12489-4.2892-4.0003-11.84 0 0-2.3031-5.6188-8.7287-11.572 0 0-4.9971-5.1959-14.151-9.2718 0 0-6.1125-3.467-14.064-4.3357 0 0-9.9583-1.0121-27.55-1.047z"/>
   <path d="m140.98 42.559 8.3522 6.0804-12.361 16.036c-3.4745-0.66817-4.0759 0.86863-4.0759 0.86863s-2.4054 2.4054-3.4745 10.156l-0.66817 116.26c-0.26727 6.4145-3.3409 13.497-3.3409 13.497-2.6727 7.6172-7.8176 12.829-7.8176 12.829-4.4768 5.4122-10.958 7.4836-10.958 7.4836-6.8154 2.2718-14.7-0.26727-14.7-0.26727-5.8799-2.4054-9.6885-7.4167-9.6885-7.4167-4.2095-4.744-6.8154-10.357-6.8154-10.357-2.5391-5.4122-3.7418-11.292-3.7418-11.292-1.1192-5.7908-1.2027-11.96-1.2027-11.96l0.26727-14.833c-0.20613-9.321-5.3454-14.433-5.3454-14.433l30.87-28.063s2.0713 5.2786-1.5368 13.631l-0.46772 43.364c-0.06682 4.3431 2.1382 6.6149 2.1382 6.6149 0.80181 1.2695 2.0045 1.6036 2.0045 1.6036 2.205 0.60136 3.9422-0.33409 3.9422-0.33409 3.1404-2.1382 3.274-5.6795 3.274-5.6795l-0.13363-57.062 4.744-5.7463 0.13363-33.542 2.6727-3.7418 1.2027-16.036c1.4032-6.214 4.6772-11.626 4.6772-11.626 5.0781-5.479 11.225-8.6863 11.225-8.6863z" stroke-linecap="round"/>
   <g stroke-linecap="round">
    <path d="m105.74 182.15 12.191-11.399v-20.789"/>
    <path d="m121.04 134.67 7.9434-7.3211"/>
    <path d="m120.84 101.46 8.478-7.1206"/>
    <path d="m120.71 118.37 8.3443-7.3879"/>
   </g>
  </g>
 </g>
</svg>
