<svg version="1.1" viewBox="0 0 363.33 347.88" xmlns="http://www.w3.org/2000/svg"><title>white shopping cart</title><g transform="translate(-220.61 -172.46)"><title>Layer 1</title><g transform="translate(558.37 -157.09)" style="fill:#fff"><path d="m15.131 329.55c-0.56018 8e-3 -1.1368 0.0575-1.6876 0.15625-0.01 2e-3 -0.021-2e-3 -0.031 0l-55.625 9.5c-3.5377 0.60697-6.5035 3.0328-7.8125 6.375a2.529 2.529 0 0 0 0 0.0312l-25.812 66.188-251.91 6.2812c-2.897 0.0724-5.6164 1.3809-7.5 3.5625-1.8833 2.1817-2.7899 5.0829-2.4376 7.9688l13.906 115.03c0.5737 4.8261 4.561 8.6532 9.4063 9.0312l179.59 14.281 35.594 28a2.529 2.529 0 0 0 0.125 0.0937c0.038 0.0264 0.086 0.0365 0.125 0.0625 0.044 0.0291 0.081 0.0652 0.125 0.0937 6.4957 4.8486 8.1056 11.454 7.1876 15.125-0.5231 2.0918-1.3217 3.6287-3.2188 4.8125-1.8971 1.1839-5.1742 2.0406-10.781 1.7188a2.529 2.529 0 0 0-0.063 0c-0.18011-6e-3 -0.38229-4e-3 -0.56241 0-0.03 7.1e-4 -0.064-9.4e-4 -0.094 0l-214.19 0.625h-0.031c-5.6288-0.0359-10.366 4.6852-10.344 10.312 0.022 5.6279 4.7779 10.331 10.406 10.25 0.011-1.2e-4 0.021 2.2e-4 0.031 0l15.656-0.0312c-5.8172 3.7082-9.7187 10.195-9.7187 17.562 0 11.459 9.3852 20.844 20.844 20.844 11.459 0 20.844-9.385 20.844-20.844 0-7.4072-3.9118-13.958-9.7812-17.656l176.38-0.5c-6.3545 3.5825-10.688 10.384-10.688 18.156 0 11.459 9.385 20.844 20.844 20.844 11.459 0 20.844-9.385 20.844-20.844 0-9.9515-7.0696-18.341-16.438-20.375 8.8575-3.1334 15.662-9.5946 19.875-19.469a2.529 2.529 0 0 0 0.15628-0.375c3.23-12.916-2.4989-26.959-14.312-36.094a2.529 2.529 0 0 0-0.094-0.0937c-0.029-0.0222-0.034-0.0716-0.062-0.0937a2.529 2.529 0 0 0-0.34382-0.34375l-25.219-19.781 78.656-201.47 49.906-8.5c0.01-2e-3 0.021 2e-3 0.031 0 5.2427-0.84286 9.0768-5.7292 8.625-11.031-0.45245-5.3122-5.081-9.4786-10.406-9.4062h3.1e-4zm-98.563 98.125-14.5 37.188h-18.906v-36.344zm-40.625 1.0312v36.156h-34.906v-35.281zm-42.125 1.0313v35.125h-34.906v-34.25zm-42.125 1.0625v34.062h-34.906v-33.188zm-42.125 1.0625v33h-34.906v-32.125zm-42.125 1.0312v31.969h-25.594l-3.7813-31.219zm-24.719 39.156h24.719v32.656h-20.781zm31.938 0h34.906v32.656h-34.906zm42.125 0h34.906v32.656h-34.906zm42.125 0h34.906v32.656h-34.906zm42.125 0h34.906v32.656h-34.906zm42.125 0h16.125l-12.75 32.656h-3.375zm-195.63 39.844h19.906v23.438l-17.25-1.375zm27.125 0h34.906v26.781l-34.906-2.7812zm42.125 0h34.906v30.125l-34.906-2.75zm42.125 0h34.906v33.5l-34.906-2.7812zm42.125 0h34.906v19.875l-6.625 16.969c-0.86001-0.41666-1.7975-0.6724-2.75-0.75l-25.531-2.0312zm42.125 0h0.53119l-0.53119 1.4688zm-176.84 132.44c6.8111 0 12.25 5.439 12.25 12.25 0 6.811-5.4389 12.219-12.25 12.219-6.8107 0-12.25-5.4078-12.25-12.219 0-6.811 5.4393-12.25 12.25-12.25zm197.59 0c6.8109 0 12.25 5.439 12.25 12.25 0 6.811-5.4391 12.219-12.25 12.219-6.811 0-12.25-5.4078-12.25-12.219 0-6.811 5.439-12.25 12.25-12.25zm-197.59 5.8125c-3.7001 0-6.6562 2.9561-6.6562 6.6562 0 3.7002 2.9561 6.625 6.6562 6.625 3.7003 0 6.6563-2.9248 6.6563-6.625 0-3.7001-2.956-6.6562-6.6563-6.6562zm197.59 0c-3.7002 0-6.6562 2.9561-6.6562 6.6562 0 3.7002 2.956 6.625 6.6562 6.625 3.7001 0 6.6562-2.9248 6.6562-6.625 0-3.7001-2.9561-6.6562-6.6562-6.6562z" style="fill:#fff;stroke-width:15.5"/></g><circle cx="388.8" cy="371.48" r="288.23" stroke-linecap="null" stroke-linejoin="null" style="fill:none;stroke-width:7"/></g></svg>
